{"title":"Six.Nations.Rugby.BBC.Red.Button.Forum.Weekend.4.pdtv.x264","uid":8255924,"size":175719388,"categoryP":"video","categoryS":"tv_shows","magnet":"?xt=urn:btih:6a2df6a8480d52038d580164309b1b399ba07245&amp;dn=Six.Nations.Rugby.BBC.Red.Button.Forum.Weekend.4.pdtv.x264&amp;tr=udp%3A%2F%2Ftracker.openbittorrent.com%3A80&amp;tr=udp%3A%2F%2Fopen.demonii.com%3A1337&amp;tr=udp%3A%2F%2Ftracker.coppersurfer.tk%3A6969&amp;tr=udp%3A%2F%2Fexodus.desync.com%3A6969","seeders":1,"leechers":0,"uploader":null,"files":4,"time":1363222620,"description":"Six Nations Forum - Red Button\n\nJoin John Inverdale and the team for analysis and comment on today's Six Nations matches. \n\n\nGeneral\nComplete name: 2013.03.10.6N.Red.Button.Forum.pdtv.x264.mp4\nFormat : MPEG-4\nFormat profile : Base Media\nCodec ID : isom\nFile size: 167 MiB\nDuration : 30mn 2s\nOverall bit rate mode: Variable\nOverall bit rate : 777 Kbps\n\nVideo\nID : 1\nFormat : AVC\nFormat/Info: Advanced Video Codec\nFormat profile : &lt;a class=&quot;__cf_email__&quot; href=&quot;/cdn-cgi/l/email-protection&quot; data-cfemail=&quot;733b1a141b333f405d42&quot;&gt;[email&amp;#160;protected]&lt;/a&gt;&lt;script cf-hash='f9e31' type=&quot;text/javascript&quot;&gt;\n/* &lt;![CDATA[ */!function(){try{var t=&quot;currentScript&quot;in document?document.currentScript:function(){for(var t=document.getElementsByTagName(&quot;script&quot;),e=t.length;e--;)if(t[e].getAttribute(&quot;cf-hash&quot;))return t[e]}();if(t&amp;&amp;t.previousSibling){var e,r,n,i,c=t.previousSibling,a=c.getAttribute(&quot;data-cfemail&quot;);if(a){for(e=&quot;&quot;,r=parseInt(a.substr(0,2),16),n=2;a.length-n;n+=2)i=parseInt(a.substr(n,2),16)^r,e+=String.fromCharCode(i);e=document.createTextNode(e),c.parentNode.replaceChild(e,c)}}}catch(u){}}();/* ]]&gt; */&lt;/script&gt;\nFormat settings, CABAC : Yes\nFormat settings, ReFrames: 5 frames\nCodec ID : avc1\nCodec ID/Info: Advanced Video Coding\nDuration : 30mn 2s\nBit rate : 645 Kbps\nMaximum bit rate : 3 112 Kbps\nWidth: 720 pixels\nHeight : 416 pixels\nDisplay aspect ratio : 1.731\nFrame rate mode: Constant\nFrame rate : 25.000 fps\nColor space: YUV\nChroma subsampling : 4:2:0\nBit depth: 8 bits\nScan type: Progressive\nBits/(Pixel*Frame) : 0.086\nStream size: 139 MiB (83%)\nWriting library: x264 core 130 r2273 b3065e6\n\nAudio\nID : 2\nFormat : AAC\nFormat/Info: Advanced Audio Codec\nFormat profile : LC\nCodec ID : 40\nDuration : 30mn 2s\nBit rate mode: Variable\nBit rate : 128 Kbps\nMaximum bit rate : 149 Kbps\nChannel(s) : 2 channels\nChannel positions: Front: L R\nSampling rate: 48.0 KHz\nCompression mode : Lossy\nDelay relative to video: 80ms\nStream size: 27.5 MiB (16%)\n\n","torrent":{"xt":"urn:btih:6a2df6a8480d52038d580164309b1b399ba07245","amp;dn":"Six.Nations.Rugby.BBC.Red.Button.Forum.Weekend.4.pdtv.x264","amp;tr":["udp%3A%2F%2Ftracker.openbittorrent.com%3A80","udp%3A%2F%2Fopen.demonii.com%3A1337","udp%3A%2F%2Ftracker.coppersurfer.tk%3A6969","udp%3A%2F%2Fexodus.desync.com%3A6969"],"infoHash":"6a2df6a8480d52038d580164309b1b399ba07245","infoHashBuffer":{"type":"Buffer","data":[106,45,246,168,72,13,82,3,141,88,1,100,48,155,27,57,155,160,114,69]},"announce":[],"urlList":[]}}